<svg xmlns="http://www.w3.org/2000/svg" fill="none" viewBox="6.59 0 233.34 70.82">
<path d="M24.4083 24.9405L27.3654 19.4927C27.7147 18.8491 27.5033 18.0375 26.9065 17.6711L18.8343 12.7139C18.4614 12.4849 18.0106 12.4196 17.5923 12.5389C17.1739 12.6581 16.819 12.9455 16.5989 13.3511L9.01477 27.3233C6.60796 31.7574 5.96909 36.9246 7.21608 41.8746C8.46308 46.8247 11.4453 50.9599 15.614 53.5199L15.8544 53.6675C20.023 56.2274 24.881 56.907 29.5349 55.5807C34.1887 54.2543 38.0763 51.0822 40.4831 46.6481L48.072 32.6671C48.2873 32.2704 48.3487 31.791 48.2366 31.3459C48.1245 30.901 47.8542 30.5235 47.473 30.2893L40.4948 26.004C39.8897 25.6325 39.1269 25.8573 38.7823 26.4921L35.8252 31.94C35.4759 32.5836 35.6872 33.395 36.2841 33.7616L37.3697 34.4283L33.1782 42.1505C30.5273 47.0341 24.6625 48.6982 20.0794 45.8837L19.8391 45.7361C15.2478 42.9166 13.6832 36.6784 16.3293 31.8035L20.5208 24.0813L22.7088 25.425C23.3008 25.8001 24.0637 25.5753 24.4083 24.9405Z" fill="#FF9900"/>
<path d="M64.6189 1.10919C64.2074 0.875078 63.748 0.75293 63.2888 0.75293C62.2169 0.75293 61.2408 1.37385 60.7431 2.38157L55.7572 12.4588C55.0203 13.9449 55.5562 15.7975 56.963 16.5813C57.3745 16.8154 57.834 16.9375 58.2932 16.9375C59.365 16.9375 60.3411 16.3166 60.8388 15.3089L65.8248 5.23169C66.1788 4.50898 66.2554 3.68448 66.0257 2.9007C65.7959 2.12709 65.2983 1.48582 64.6189 1.10919Z" fill="#FF9900"/>
<path d="M40.4274 2.14777C40.0543 0.865215 38.9537 0 37.6905 0C37.4034 0 37.1163 0.0508951 36.8388 0.142506C35.3268 0.641277 34.4752 2.36153 34.944 3.96981L38.1212 14.841C38.4944 16.1235 39.5949 16.9887 40.8581 16.9887C41.1452 16.9887 41.4323 16.9378 41.7099 16.8462C42.4467 16.6019 43.0401 16.0726 43.4037 15.3499C43.7578 14.6272 43.8344 13.8027 43.6047 13.0189L40.4274 2.14777Z" fill="#FF9900"/>
<path d="M62.9442 22.0168C63.3174 23.2993 64.4179 24.1646 65.6812 24.1646C65.9683 24.1646 66.2554 24.1137 66.5329 24.022L76.7534 20.6426C78.2655 20.1439 79.1172 18.4236 78.6387 16.8255C78.2655 15.5429 77.165 14.6777 75.9017 14.6777C75.6146 14.6777 75.3275 14.7286 75.05 14.8202L64.8294 18.1895C63.3174 18.6883 62.4753 20.4085 62.9442 22.0168Z" fill="#FF9900"/>
<path d="M57.0828 52.6699L51.3672 49.9021C50.7001 49.5791 49.8817 49.8561 49.5549 50.5154L45.1496 59.4189C44.9446 59.8327 44.9126 60.306 45.0661 60.749C45.2162 61.1824 45.5383 61.5468 45.9569 61.7496L60.6188 68.8493C65.275 71.1039 70.5375 71.4319 75.4385 69.7736C80.3395 68.1152 84.2944 64.6682 86.5757 60.0662L86.7102 59.7947C88.9913 55.1925 89.3233 49.9913 87.6454 45.1472C85.9676 40.3033 82.4799 36.3943 77.8238 34.1397L63.1555 27.053C62.737 26.8503 62.258 26.8188 61.8098 26.9704C61.3713 27.1188 61.0026 27.4372 60.7975 27.8509L56.9848 35.5426C56.6581 36.202 56.9382 37.0108 57.6053 37.3338L63.3209 40.1014C63.9881 40.4245 64.8065 40.1476 65.1333 39.4881L65.7293 38.286L73.8384 42.2126C78.9524 44.689 81.0706 50.8042 78.5685 55.8683L78.4339 56.1399C75.9284 61.1945 69.7412 63.288 64.6175 60.815L56.5083 56.8884L57.7066 54.4709C58.0398 53.7985 57.7629 52.9991 57.0828 52.6699Z" fill="#FF9900"/>
<path d="M112.52 17.0009V27.0809C112.52 28.0889 112.768 28.8649 113.264 29.4089C113.76 29.9529 114.488 30.2249 115.448 30.2249C116.408 30.2249 117.144 29.9529 117.656 29.4089C118.168 28.8649 118.424 28.0889 118.424 27.0809V17.0009H122.528V27.0569C122.528 28.5609 122.208 29.8329 121.568 30.8729C120.928 31.9129 120.064 32.6969 118.976 33.2249C117.904 33.7529 116.704 34.0169 115.376 34.0169C114.048 34.0169 112.856 33.7609 111.8 33.2489C110.76 32.7209 109.936 31.9369 109.328 30.8969C108.72 29.8409 108.416 28.5609 108.416 27.0569V17.0009H112.52ZM133.57 20.3129C135.138 20.3129 136.386 20.8249 137.314 21.8489C138.258 22.8569 138.73 24.2489 138.73 26.0249V33.8489H134.65V26.5769C134.65 25.6809 134.418 24.9849 133.954 24.4889C133.49 23.9929 132.866 23.7449 132.082 23.7449C131.298 23.7449 130.674 23.9929 130.21 24.4889C129.746 24.9849 129.514 25.6809 129.514 26.5769V33.8489H125.41V20.4569H129.514V22.2329C129.93 21.6409 130.49 21.1769 131.194 20.8409C131.898 20.4889 132.69 20.3129 133.57 20.3129ZM140.766 27.1529C140.766 25.7609 141.046 24.5449 141.606 23.5049C142.182 22.4649 142.974 21.6649 143.982 21.1049C145.006 20.5449 146.174 20.2649 147.486 20.2649C149.166 20.2649 150.566 20.7049 151.686 21.5849C152.822 22.4649 153.566 23.7049 153.918 25.3049H149.55C149.182 24.2809 148.47 23.7689 147.414 23.7689C146.662 23.7689 146.062 24.0649 145.614 24.6569C145.166 25.2329 144.942 26.0649 144.942 27.1529C144.942 28.2409 145.166 29.0809 145.614 29.6729C146.062 30.2489 146.662 30.5369 147.414 30.5369C148.47 30.5369 149.182 30.0249 149.55 29.0009H153.918C153.566 30.5689 152.822 31.8009 151.686 32.6969C150.55 33.5929 149.15 34.0409 147.486 34.0409C146.174 34.0409 145.006 33.7609 143.982 33.2009C142.974 32.6409 142.182 31.8409 141.606 30.8009C141.046 29.7609 140.766 28.5449 140.766 27.1529ZM164.345 20.3129C165.881 20.3129 167.113 20.8249 168.041 21.8489C168.969 22.8569 169.433 24.2489 169.433 26.0249V33.8489H165.353V26.5769C165.353 25.6809 165.121 24.9849 164.657 24.4889C164.193 23.9929 163.569 23.7449 162.785 23.7449C162.001 23.7449 161.377 23.9929 160.913 24.4889C160.449 24.9849 160.217 25.6809 160.217 26.5769V33.8489H156.113V16.0889H160.217V22.2569C160.633 21.6649 161.201 21.1929 161.921 20.8409C162.641 20.4889 163.449 20.3129 164.345 20.3129ZM171.469 27.1289C171.469 25.7529 171.725 24.5449 172.237 23.5049C172.765 22.4649 173.477 21.6649 174.373 21.1049C175.269 20.5449 176.269 20.2649 177.373 20.2649C178.317 20.2649 179.141 20.4569 179.845 20.8409C180.565 21.2249 181.117 21.7289 181.501 22.3529V20.4569H185.605V33.8489H181.501V31.9529C181.101 32.5769 180.541 33.0809 179.821 33.4649C179.117 33.8489 178.293 34.0409 177.349 34.0409C176.261 34.0409 175.269 33.7609 174.373 33.2009C173.477 32.6249 172.765 31.8169 172.237 30.7769C171.725 29.7209 171.469 28.5049 171.469 27.1289ZM181.501 27.1529C181.501 26.1289 181.213 25.3209 180.637 24.7289C180.077 24.1369 179.389 23.8409 178.573 23.8409C177.757 23.8409 177.061 24.1369 176.485 24.7289C175.925 25.3049 175.645 26.1049 175.645 27.1289C175.645 28.1529 175.925 28.9689 176.485 29.5769C177.061 30.1689 177.757 30.4649 178.573 30.4649C179.389 30.4649 180.077 30.1689 180.637 29.5769C181.213 28.9849 181.501 28.1769 181.501 27.1529ZM190.638 19.0649C189.918 19.0649 189.326 18.8569 188.862 18.4409C188.414 18.0089 188.19 17.4809 188.19 16.8569C188.19 16.2169 188.414 15.6889 188.862 15.2729C189.326 14.8409 189.918 14.6249 190.638 14.6249C191.342 14.6249 191.918 14.8409 192.366 15.2729C192.83 15.6889 193.062 16.2169 193.062 16.8569C193.062 17.4809 192.83 18.0089 192.366 18.4409C191.918 18.8569 191.342 19.0649 190.638 19.0649ZM192.678 20.4569V33.8489H188.574V20.4569H192.678ZM203.812 20.3129C205.38 20.3129 206.628 20.8249 207.556 21.8489C208.5 22.8569 208.972 24.2489 208.972 26.0249V33.8489H204.892V26.5769C204.892 25.6809 204.66 24.9849 204.196 24.4889C203.732 23.9929 203.108 23.7449 202.324 23.7449C201.54 23.7449 200.916 23.9929 200.452 24.4889C199.988 24.9849 199.756 25.6809 199.756 26.5769V33.8489H195.652V20.4569H199.756V22.2329C200.172 21.6409 200.732 21.1769 201.436 20.8409C202.14 20.4889 202.932 20.3129 203.812 20.3129ZM224.448 26.9369C224.448 27.3209 224.424 27.7209 224.376 28.1369H215.088C215.152 28.9689 215.416 29.6089 215.88 30.0569C216.36 30.4889 216.944 30.7049 217.632 30.7049C218.656 30.7049 219.368 30.2729 219.768 29.4089H224.136C223.912 30.2889 223.504 31.0809 222.912 31.7849C222.336 32.4889 221.608 33.0409 220.728 33.4409C219.848 33.8409 218.864 34.0409 217.776 34.0409C216.464 34.0409 215.296 33.7609 214.272 33.2009C213.248 32.6409 212.448 31.8409 211.872 30.8009C211.296 29.7609 211.008 28.5449 211.008 27.1529C211.008 25.7609 211.288 24.5449 211.848 23.5049C212.424 22.4649 213.224 21.6649 214.248 21.1049C215.272 20.5449 216.448 20.2649 217.776 20.2649C219.072 20.2649 220.224 20.5369 221.232 21.0809C222.24 21.6249 223.024 22.4009 223.584 23.4089C224.16 24.4169 224.448 25.5929 224.448 26.9369ZM220.248 25.8569C220.248 25.1529 220.008 24.5929 219.528 24.1769C219.048 23.7609 218.448 23.5529 217.728 23.5529C217.04 23.5529 216.456 23.7529 215.976 24.1529C215.512 24.5529 215.224 25.1209 215.112 25.8569H220.248ZM225.797 27.1289C225.797 25.7529 226.053 24.5449 226.565 23.5049C227.093 22.4649 227.805 21.6649 228.701 21.1049C229.597 20.5449 230.597 20.2649 231.701 20.2649C232.581 20.2649 233.381 20.4489 234.101 20.8169C234.837 21.1849 235.413 21.6809 235.829 22.3049V16.0889H239.933V33.8489H235.829V31.9289C235.445 32.5689 234.893 33.0809 234.173 33.4649C233.469 33.8489 232.645 34.0409 231.701 34.0409C230.597 34.0409 229.597 33.7609 228.701 33.2009C227.805 32.6249 227.093 31.8169 226.565 30.7769C226.053 29.7209 225.797 28.5049 225.797 27.1289ZM235.829 27.1529C235.829 26.1289 235.541 25.3209 234.965 24.7289C234.405 24.1369 233.717 23.8409 232.901 23.8409C232.085 23.8409 231.389 24.1369 230.813 24.7289C230.253 25.3049 229.973 26.1049 229.973 27.1289C229.973 28.1529 230.253 28.9689 230.813 29.5769C231.389 30.1689 232.085 30.4649 232.901 30.4649C233.717 30.4649 234.405 30.1689 234.965 29.5769C235.541 28.9849 235.829 28.1769 235.829 27.1529ZM107.672 53.1289C107.672 51.7529 107.928 50.5449 108.44 49.5049C108.968 48.4649 109.68 47.6649 110.576 47.1049C111.472 46.5449 112.472 46.2649 113.576 46.2649C114.456 46.2649 115.256 46.4489 115.976 46.8169C116.712 47.1849 117.288 47.6809 117.704 48.3049V42.0889H121.808V59.8489H117.704V57.9289C117.32 58.5689 116.768 59.0809 116.048 59.4649C115.344 59.8489 114.52 60.0409 113.576 60.0409C112.472 60.0409 111.472 59.7609 110.576 59.2009C109.68 58.6249 108.968 57.8169 108.44 56.7769C107.928 55.7209 107.672 54.5049 107.672 53.1289ZM117.704 53.1529C117.704 52.1289 117.416 51.3209 116.84 50.7289C116.28 50.1369 115.592 49.8409 114.776 49.8409C113.96 49.8409 113.264 50.1369 112.688 50.7289C112.128 51.3049 111.848 52.1049 111.848 53.1289C111.848 54.1529 112.128 54.9689 112.688 55.5769C113.264 56.1689 113.96 56.4649 114.776 56.4649C115.592 56.4649 116.28 56.1689 116.84 55.5769C117.416 54.9849 117.704 54.1769 117.704 53.1529ZM137.401 52.9369C137.401 53.3209 137.377 53.7209 137.329 54.1369H128.041C128.105 54.9689 128.369 55.6089 128.833 56.0569C129.313 56.4889 129.897 56.7049 130.585 56.7049C131.609 56.7049 132.321 56.2729 132.721 55.4089H137.089C136.865 56.2889 136.457 57.0809 135.865 57.7849C135.289 58.4889 134.561 59.0409 133.681 59.4409C132.801 59.8409 131.817 60.0409 130.729 60.0409C129.417 60.0409 128.249 59.7609 127.225 59.2009C126.201 58.6409 125.401 57.8409 124.825 56.8009C124.249 55.7609 123.961 54.5449 123.961 53.1529C123.961 51.7609 124.241 50.5449 124.801 49.5049C125.377 48.4649 126.177 47.6649 127.201 47.1049C128.225 46.5449 129.401 46.2649 130.729 46.2649C132.025 46.2649 133.177 46.5369 134.185 47.0809C135.193 47.6249 135.977 48.4009 136.537 49.4089C137.113 50.4169 137.401 51.5929 137.401 52.9369ZM133.201 51.8569C133.201 51.1529 132.961 50.5929 132.481 50.1769C132.001 49.7609 131.401 49.5529 130.681 49.5529C129.993 49.5529 129.409 49.7529 128.929 50.1529C128.465 50.5529 128.177 51.1209 128.065 51.8569H133.201ZM145.59 56.0089L148.494 46.4569H152.862L148.11 59.8489H143.046L138.294 46.4569H142.686L145.59 56.0089ZM160.038 60.0409C158.87 60.0409 157.83 59.8409 156.918 59.4409C156.006 59.0409 155.286 58.4969 154.758 57.8089C154.23 57.1049 153.934 56.3209 153.87 55.4569H157.926C157.974 55.9209 158.19 56.2969 158.574 56.5849C158.958 56.8729 159.43 57.0169 159.99 57.0169C160.502 57.0169 160.894 56.9209 161.166 56.7289C161.454 56.5209 161.598 56.2569 161.598 55.9369C161.598 55.5529 161.398 55.2729 160.998 55.0969C160.598 54.9049 159.95 54.6969 159.054 54.4729C158.094 54.2489 157.294 54.0169 156.654 53.7769C156.014 53.5209 155.462 53.1289 154.998 52.6009C154.534 52.0569 154.302 51.3289 154.302 50.4169C154.302 49.6489 154.51 48.9529 154.926 48.3289C155.358 47.6889 155.982 47.1849 156.798 46.8169C157.63 46.4489 158.614 46.2649 159.75 46.2649C161.43 46.2649 162.75 46.6809 163.71 47.5129C164.686 48.3449 165.246 49.4489 165.39 50.8249H161.598C161.534 50.3609 161.326 49.9929 160.974 49.7209C160.638 49.4489 160.19 49.3129 159.63 49.3129C159.15 49.3129 158.782 49.4089 158.526 49.6009C158.27 49.7769 158.142 50.0249 158.142 50.3449C158.142 50.7289 158.342 51.0169 158.742 51.2089C159.158 51.4009 159.798 51.5929 160.662 51.7849C161.654 52.0409 162.462 52.2969 163.086 52.5529C163.71 52.7929 164.254 53.1929 164.718 53.7529C165.198 54.2969 165.446 55.0329 165.462 55.9609C165.462 56.7449 165.238 57.4489 164.79 58.0729C164.358 58.6809 163.726 59.1609 162.894 59.5129C162.078 59.8649 161.126 60.0409 160.038 60.0409ZM183.404 60.8329V64.7689H168.524V60.8329H183.404Z" fill="#171717"/>
</svg>