<svg width="28" height="22" viewBox="0 0 28 22" fill="none" xmlns="http://www.w3.org/2000/svg">
<path d="M7.32023 7.0321L8.20708 5.49603C8.31186 5.31456 8.24844 5.08573 8.06948 4.98241L5.64856 3.58469C5.53671 3.52011 5.40151 3.50171 5.27606 3.53533C5.1506 3.56895 5.04415 3.64999 4.97812 3.76435L2.7036 7.70395C1.98178 8.95418 1.79018 10.4111 2.16416 11.8068C2.53814 13.2026 3.43254 14.3685 4.68277 15.0903L4.75485 15.1319C6.00506 15.8537 7.46201 16.0454 8.85774 15.6714C10.2535 15.2974 11.4194 14.403 12.1412 13.1527L14.4172 9.21067C14.4817 9.09882 14.5001 8.96366 14.4665 8.83817C14.4329 8.71272 14.3519 8.60626 14.2375 8.54025L12.1447 7.33197C11.9632 7.2272 11.7345 7.2906 11.6311 7.46958L10.7443 9.00565C10.6395 9.18712 10.7029 9.41592 10.8819 9.51927L11.2075 9.70726L9.95039 11.8846C9.15538 13.2616 7.39648 13.7308 6.02197 12.9372L5.94989 12.8956C4.57292 12.1006 4.1037 10.3417 4.89727 8.96718L6.15436 6.78984L6.81054 7.16869C6.98808 7.27448 7.2169 7.21108 7.32023 7.0321Z" fill="#FF9900"/>
<path d="M19.3793 0.312855C19.2559 0.246843 19.1182 0.212402 18.9804 0.212402C18.659 0.212402 18.3662 0.387476 18.217 0.671612L16.7217 3.51297C16.5007 3.932 16.6614 4.45436 17.0833 4.67535C17.2067 4.74136 17.3445 4.7758 17.4822 4.7758C17.8037 4.7758 18.0964 4.60073 18.2457 4.31659L19.741 1.47523C19.8472 1.27146 19.8702 1.03898 19.8013 0.817986C19.7323 0.599861 19.5831 0.419047 19.3793 0.312855Z" fill="#FF9900"/>
<path d="M12.1246 0.605583C12.0126 0.243956 11.6826 0 11.3037 0C11.2176 0 11.1315 0.0143504 11.0483 0.0401809C10.5948 0.180814 10.3394 0.665855 10.48 1.11932L11.4329 4.18455C11.5448 4.54618 11.8749 4.79014 12.2537 4.79014C12.3398 4.79014 12.4259 4.77578 12.5092 4.74995C12.7302 4.68107 12.9081 4.53183 13.0172 4.32805C13.1234 4.12428 13.1463 3.89181 13.0774 3.67081L12.1246 0.605583Z" fill="#FF9900"/>
<path d="M18.8778 6.20799C18.9897 6.56962 19.3198 6.81357 19.6986 6.81357C19.7847 6.81357 19.8708 6.79922 19.954 6.77339L23.0193 5.82053C23.4728 5.6799 23.7282 5.19486 23.5847 4.74426C23.4728 4.38263 23.1427 4.13867 22.7638 4.13867C22.6777 4.13867 22.5916 4.15302 22.5084 4.17885L19.4432 5.12884C18.9897 5.26948 18.7371 5.75452 18.8778 6.20799Z" fill="#FF9900"/>
<path d="M17.5801 14.8508L15.9873 14.0704C15.8014 13.9794 15.5733 14.0575 15.4822 14.2434L14.2546 16.7538C14.1974 16.8705 14.1885 17.0039 14.2313 17.1288C14.2731 17.251 14.3629 17.3538 14.4796 17.411L18.5655 19.4128C19.8631 20.0485 21.3297 20.141 22.6955 19.6734C24.0613 19.2058 25.1635 18.2339 25.7992 16.9363L25.8367 16.8598C26.4724 15.5621 26.5649 14.0956 26.0973 12.7298C25.6298 11.364 24.6578 10.2618 23.3603 9.62609L19.2725 7.62792C19.1558 7.57078 19.0223 7.56187 18.8974 7.60463C18.7753 7.64647 18.6725 7.73624 18.6153 7.85289L17.5528 10.0216C17.4618 10.2076 17.5398 10.4356 17.7257 10.5267L19.3186 11.307C19.5045 11.3982 19.7326 11.3201 19.8236 11.1341L19.9897 10.7952L22.2496 11.9023C23.6748 12.6005 24.2651 14.3248 23.5678 15.7527L23.5303 15.8293C22.832 17.2544 21.1078 17.8447 19.6799 17.1474L17.42 16.0403L17.754 15.3586C17.8468 15.1691 17.7697 14.9437 17.5801 14.8508Z" fill="#FF9900"/>
</svg>
