<svg width="53" height="53" viewBox="0 0 53 53" fill="none" xmlns="http://www.w3.org/2000/svg">
<rect width="53" height="53" fill="#9E0707"/>
<path d="M20.3977 15.7273H25.3182V30.8409C25.3182 32.5379 24.9129 34.0227 24.1023 35.2955C23.2992 36.5682 22.1742 37.5606 20.7273 38.2727C19.2803 38.9773 17.5947 39.3295 15.6705 39.3295C13.7386 39.3295 12.0492 38.9773 10.6023 38.2727C9.1553 37.5606 8.0303 36.5682 7.22727 35.2955C6.42424 34.0227 6.02273 32.5379 6.02273 30.8409V15.7273H10.9432V30.4205C10.9432 31.3068 11.1364 32.0947 11.5227 32.7841C11.9167 33.4735 12.4697 34.0152 13.1818 34.4091C13.8939 34.803 14.7235 35 15.6705 35C16.625 35 17.4545 34.803 18.1591 34.4091C18.8712 34.0152 19.4205 33.4735 19.8068 32.7841C20.2008 32.0947 20.3977 31.3068 20.3977 30.4205V15.7273ZM41.9915 22.4205C41.9006 21.5038 41.5104 20.7917 40.821 20.2841C40.1316 19.7765 39.196 19.5227 38.0142 19.5227C37.2112 19.5227 36.5331 19.6364 35.9801 19.8636C35.4271 20.0833 35.0028 20.3902 34.7074 20.7841C34.4195 21.178 34.2756 21.625 34.2756 22.125C34.2604 22.5417 34.3475 22.9053 34.5369 23.2159C34.7339 23.5265 35.0028 23.7955 35.3438 24.0227C35.6847 24.2424 36.0786 24.4356 36.5256 24.6023C36.9725 24.7614 37.4498 24.8977 37.9574 25.0114L40.0483 25.5114C41.0634 25.7386 41.9953 26.0417 42.8438 26.4205C43.6922 26.7992 44.4271 27.2652 45.0483 27.8182C45.6695 28.3712 46.1506 29.0227 46.4915 29.7727C46.84 30.5227 47.018 31.3826 47.0256 32.3523C47.018 33.7765 46.6544 35.0114 45.9347 36.0568C45.2225 37.0947 44.1922 37.9015 42.8438 38.4773C41.5028 39.0455 39.8854 39.3295 37.9915 39.3295C36.1127 39.3295 34.4763 39.0417 33.0824 38.4659C31.696 37.8902 30.6127 37.0379 29.8324 35.9091C29.0597 34.7727 28.6544 33.3674 28.6165 31.6932H33.3778C33.4309 32.4735 33.6544 33.125 34.0483 33.6477C34.4498 34.1629 34.9839 34.553 35.6506 34.8182C36.3248 35.0758 37.0862 35.2045 37.9347 35.2045C38.768 35.2045 39.4915 35.0833 40.1051 34.8409C40.7263 34.5985 41.2074 34.2614 41.5483 33.8295C41.8892 33.3977 42.0597 32.9015 42.0597 32.3409C42.0597 31.8182 41.9044 31.3788 41.5938 31.0227C41.2907 30.6667 40.8438 30.3636 40.2528 30.1136C39.6695 29.8636 38.9536 29.6364 38.1051 29.4318L35.571 28.7955C33.6089 28.3182 32.0597 27.572 30.9233 26.5568C29.7869 25.5417 29.2225 24.1742 29.2301 22.4545C29.2225 21.0455 29.5975 19.8144 30.3551 18.7614C31.1203 17.7083 32.1695 16.8864 33.5028 16.2955C34.8362 15.7045 36.3513 15.4091 38.0483 15.4091C39.7756 15.4091 41.2831 15.7045 42.571 16.2955C43.8665 16.8864 44.8741 17.7083 45.5938 18.7614C46.3134 19.8144 46.6847 21.0341 46.7074 22.4205H41.9915Z" fill="white"/>
</svg>
